<?xml version="1.0" encoding="utf-8"?>
<!-- Generator: Adobe Illustrator 27.0.0, SVG Export Plug-In . SVG Version: 6.00 Build 0)  -->
<svg version="1.1" id="Layer_1" xmlns="http://www.w3.org/2000/svg" xmlns:xlink="http://www.w3.org/1999/xlink" x="0px" y="0px"
	 width="150px" height="56px" viewBox="0 0 150 56" style="enable-background:new 0 0 150 56;" xml:space="preserve">
<style type="text/css">
	.st0{fill:#FFFFFF;}
</style>
<g>
	<g>
		<path class="st0" d="M0.1,0.1L0,55.8L150,56V0L0.1,0.1z M83.4,25.3V1.9h8.1v23.4H83.4z M1.7,50.5V31c0-2,1.6-3.7,3.5-3.7h28.1
			c1.9,0,3.5,1.6,3.5,3.7v19.5c0,2-1.6,3.7-3.5,3.7H5.2C3.3,54.2,1.7,52.5,1.7,50.5z M22.1,13.7c0-7.1,5.4-12.1,12.6-12.1
			c7.4,0,12.6,5.1,12.6,12.1s-5.3,12-12.6,12C27.3,25.7,22.1,20.8,22.1,13.7z M48.6,25.3l3.7-23.4h8.4c0,0,2.8,11.1,3.1,12.5
			c0.3,1.2,0.5,0,0.5,0l3.2-12.5h8.3l3.7,23.4H72c0,0-1-11-1.1-13c-0.2-1.9-0.6,0-0.6,0l-3.6,13h-4.7c0,0-3.3-12-3.6-13
			c-0.2-0.9-0.4-1.3-0.5,0c-0.2,2.8-0.1,2.1-0.2,3.1l-1,9.9H48.6z M42.4,27.4h28.1c1.9,0,3.5,1.6,3.5,3.7v19.5c0,2-1.6,3.7-3.5,3.7
			H42.4c-1.9,0-3.5-1.6-3.5-3.7V31C38.8,29,40.5,27.4,42.4,27.4z M79.5,27.4h28.1c1.9,0,3.5,1.6,3.5,3.7v19.5c0,2-1.6,3.7-3.5,3.7
			H79.5c-1.9,0-3.5-1.6-3.5-3.7V31C76,29,77.6,27.4,79.5,27.4z M112.8,14.6c-0.3-1.9-0.7-3.8-0.7-5.7v-7h7.7v23.4H112
			c0,0-6.4-10.7-7.4-12.5s-0.6,0-0.6,0V13c0.3,1.8,0.5,3.2,0.5,4.8v7.6h-7.7V1.9h7.8c0,0,6.7,11.5,7.6,13.2c1,1.7,0.6,0,0.6,0V14.6z
			 M139.6,10.2c-0.7-1.1-1.9-1.8-3.3-1.8c-3.2,0-4.8,2.9-4.8,5.8c0,2.6,1.6,5.3,4.5,5.3c1.4,0,3.2-0.7,3.6-2.2l0.1-0.3h-3.8v-5.2
			h12.6l0,0c-0.1,3.7-0.1,6.9-2.7,9.9c-2.3,2.6-6,4.2-9.7,4.2c-7.5,0-12.6-4.9-12.6-11.9c0-7.4,5-12.2,12.7-12.2c4,0,9.3,2,11.1,5.8
			L139.6,10.2z M116.7,27.4h28.1c1.9,0,3.5,1.6,3.5,3.7v19.5c0,2-1.6,3.7-3.5,3.7h-28.1c-1.9,0-3.5-1.6-3.5-3.7V31
			C113.2,29,114.8,27.4,116.7,27.4z M14.4,8.8c-2.6,0-4.7,2.2-4.7,4.9s2.2,4.9,4.9,4.9c1.7,0,3.2-0.6,4.6-1.9l-0.3,8.2
			c-1.4,0.6-4.4,0.9-5.9,0.9c-6.5,0-11.6-5.2-11.6-11.8c0-7,5.3-12.3,11.9-12.3c1.8,0,3.7,0.3,5.5,0.9l0.2,8.5
			C17.5,9.5,15.9,8.8,14.4,8.8z"/>
		<path class="st0" d="M34.8,18.3c2.7,0,4.5-2,4.5-4.8s-1.9-4.9-4.5-4.9c-2.6,0-4.5,2-4.5,4.9C30.2,16.3,32.1,18.3,34.8,18.3z"/>
		<path class="st0" d="M93.6,52.5c7.5,0,12.6-5,12.6-12s-5.4-12.1-12.6-12.1c-7.4,0-12.6,5.1-12.6,12.1S86.1,52.5,93.6,52.5z
			 M93.6,36.3c2.3,0,4,1.8,4,4.3c0,2.5-1.6,4.3-4,4.3c-2.3,0-4-1.8-4-4.3C89.5,38.1,91.3,36.3,93.6,36.3z"/>
		<path class="st0" d="M56.4,52.5c7.5,0,12.6-5,12.6-12s-5.4-12.1-12.6-12.1c-7.4,0-12.6,5.1-12.6,12.1S48.9,52.5,56.4,52.5z
			 M56.4,36.3c2.3,0,4,1.8,4,4.3c0,2.5-1.6,4.3-4,4.3c-2.3,0-4-1.8-4-4.3C52.4,38.1,54.1,36.3,56.4,36.3z"/>
		<path class="st0" d="M18.1,45.9c-1.6,0-3.2-0.7-4.9-2.1l-0.6-0.5l-2.6,7l0.2,0.1c2.6,1.3,5.9,2.1,8.8,2.1c4.8,0,10-2.7,10-8.5
			c0-3.6-2-5.9-6.2-6.8l-2.3-0.5c-0.7-0.2-1.3-0.3-1.3-0.9c0-1,1.4-1,1.6-1c1.5,0,3,0.6,4.6,1.7l0.2,0.1l2.3-6.3l-0.1-0.1
			c-2.2-1.4-4.5-2.1-7.3-2.1c-4.8,0-10,3.1-10,8.8c0,3.3,2.2,5.6,6.1,6.3l1.6,0.3c0.1,0,0.2,0,0.2,0c0.8,0.2,1.4,0.3,1.4,1.1
			C20,45.6,18.8,45.9,18.1,45.9z"/>
		<path class="st0" d="M127.5,44.4c0-1.2-0.1-2.4-0.3-3.6c-0.1-0.7,0.3,0,0.3,0l6.7,11.2h8.2V28.7h-8.2v7.1c0,1.6,0.2,3.2,0.5,4.8
			c0.1,0.7-0.2,0-0.2,0l-6.9-11.9h-8.2v23.5h8.2v-7.7H127.5z"/>
	</g>
</g>
</svg>
